<mxfile host="app.diagrams.net" modified="2023-08-01T11:39:15.939Z" agent="Mozilla/5.0 (Windows NT 10.0; Win64; x64) AppleWebKit/537.36 (KHTML, like Gecko) Chrome/115.0.0.0 Safari/537.36" etag="OEAVukun1dkGBRmTbf-H" version="21.6.6" type="device">
  <diagram name="페이지-1" id="RGnwuYh1zGf8iK2MfvKK">
    <mxGraphModel dx="1791" dy="998" grid="1" gridSize="10" guides="1" tooltips="1" connect="1" arrows="1" fold="1" page="1" pageScale="1" pageWidth="827" pageHeight="1169" math="0" shadow="0">
      <root>
        <mxCell id="0" />
        <mxCell id="1" parent="0" />
        <mxCell id="0ygpLw3cr9mGeJXH4rAR-15" value="" style="edgeStyle=orthogonalEdgeStyle;rounded=0;orthogonalLoop=1;jettySize=auto;html=1;" parent="1" source="0ygpLw3cr9mGeJXH4rAR-1" target="0ygpLw3cr9mGeJXH4rAR-5" edge="1">
          <mxGeometry relative="1" as="geometry" />
        </mxCell>
        <mxCell id="0ygpLw3cr9mGeJXH4rAR-16" value="" style="edgeStyle=orthogonalEdgeStyle;rounded=0;orthogonalLoop=1;jettySize=auto;html=1;" parent="1" source="0ygpLw3cr9mGeJXH4rAR-1" target="0ygpLw3cr9mGeJXH4rAR-5" edge="1">
          <mxGeometry relative="1" as="geometry" />
        </mxCell>
        <mxCell id="0ygpLw3cr9mGeJXH4rAR-1" value="import : webdriver" style="rounded=0;whiteSpace=wrap;html=1;" parent="1" vertex="1">
          <mxGeometry x="-90.06" y="60" width="150" height="20" as="geometry" />
        </mxCell>
        <mxCell id="pz-zH1YR06cYWHIOPMxu-7" value="" style="edgeStyle=orthogonalEdgeStyle;rounded=0;orthogonalLoop=1;jettySize=auto;html=1;" parent="1" source="0ygpLw3cr9mGeJXH4rAR-5" target="pz-zH1YR06cYWHIOPMxu-5" edge="1">
          <mxGeometry relative="1" as="geometry" />
        </mxCell>
        <mxCell id="0ygpLw3cr9mGeJXH4rAR-5" value="&lt;div&gt;driver.get :&amp;nbsp;&lt;/div&gt;&lt;div&gt;T sherpa Web&lt;/div&gt;" style="rounded=0;whiteSpace=wrap;html=1;" parent="1" vertex="1">
          <mxGeometry x="-90.06" y="100" width="150" height="40" as="geometry" />
        </mxCell>
        <mxCell id="0ygpLw3cr9mGeJXH4rAR-29" value="" style="edgeStyle=orthogonalEdgeStyle;rounded=0;orthogonalLoop=1;jettySize=auto;html=1;" parent="1" source="0ygpLw3cr9mGeJXH4rAR-6" target="0ygpLw3cr9mGeJXH4rAR-26" edge="1">
          <mxGeometry relative="1" as="geometry" />
        </mxCell>
        <mxCell id="0ygpLw3cr9mGeJXH4rAR-30" value="False" style="edgeLabel;html=1;align=center;verticalAlign=middle;resizable=0;points=[];" parent="0ygpLw3cr9mGeJXH4rAR-29" vertex="1" connectable="0">
          <mxGeometry x="-0.7519" y="-1" relative="1" as="geometry">
            <mxPoint as="offset" />
          </mxGeometry>
        </mxCell>
        <mxCell id="0ygpLw3cr9mGeJXH4rAR-59" value="" style="edgeStyle=orthogonalEdgeStyle;rounded=0;orthogonalLoop=1;jettySize=auto;html=1;" parent="1" source="0ygpLw3cr9mGeJXH4rAR-6" target="0ygpLw3cr9mGeJXH4rAR-58" edge="1">
          <mxGeometry relative="1" as="geometry" />
        </mxCell>
        <mxCell id="0ygpLw3cr9mGeJXH4rAR-60" value="True" style="edgeLabel;html=1;align=center;verticalAlign=middle;resizable=0;points=[];" parent="0ygpLw3cr9mGeJXH4rAR-59" vertex="1" connectable="0">
          <mxGeometry x="-0.7" relative="1" as="geometry">
            <mxPoint x="21" as="offset" />
          </mxGeometry>
        </mxCell>
        <mxCell id="pz-zH1YR06cYWHIOPMxu-12" value="" style="edgeStyle=orthogonalEdgeStyle;rounded=0;orthogonalLoop=1;jettySize=auto;html=1;" parent="1" source="0ygpLw3cr9mGeJXH4rAR-7" target="0ygpLw3cr9mGeJXH4rAR-24" edge="1">
          <mxGeometry relative="1" as="geometry" />
        </mxCell>
        <mxCell id="0ygpLw3cr9mGeJXH4rAR-24" value="&lt;div style=&quot;border-color: var(--border-color);&quot;&gt;driver.find_element :&lt;/div&gt;&lt;div style=&quot;border-color: var(--border-color);&quot;&gt;Plus img&amp;nbsp;&lt;/div&gt;" style="rounded=0;whiteSpace=wrap;html=1;" parent="1" vertex="1">
          <mxGeometry x="-90.06" y="360" width="150" height="40" as="geometry" />
        </mxCell>
        <mxCell id="0ygpLw3cr9mGeJXH4rAR-31" value="" style="edgeStyle=orthogonalEdgeStyle;rounded=0;orthogonalLoop=1;jettySize=auto;html=1;" parent="1" source="0ygpLw3cr9mGeJXH4rAR-26" target="0ygpLw3cr9mGeJXH4rAR-28" edge="1">
          <mxGeometry relative="1" as="geometry" />
        </mxCell>
        <mxCell id="0ygpLw3cr9mGeJXH4rAR-64" value="True" style="edgeLabel;html=1;align=center;verticalAlign=middle;resizable=0;points=[];" parent="0ygpLw3cr9mGeJXH4rAR-31" vertex="1" connectable="0">
          <mxGeometry x="0.6265" y="-1" relative="1" as="geometry">
            <mxPoint as="offset" />
          </mxGeometry>
        </mxCell>
        <mxCell id="0ygpLw3cr9mGeJXH4rAR-26" value="&lt;font style=&quot;font-size: 8px;&quot;&gt;is_displayed()&lt;br&gt;&lt;/font&gt;" style="rhombus;whiteSpace=wrap;html=1;" parent="1" vertex="1">
          <mxGeometry x="-90.06" y="430" width="150" height="40" as="geometry" />
        </mxCell>
        <mxCell id="0ygpLw3cr9mGeJXH4rAR-34" value="" style="edgeStyle=orthogonalEdgeStyle;rounded=0;orthogonalLoop=1;jettySize=auto;html=1;" parent="1" source="0ygpLw3cr9mGeJXH4rAR-28" target="0ygpLw3cr9mGeJXH4rAR-33" edge="1">
          <mxGeometry relative="1" as="geometry" />
        </mxCell>
        <mxCell id="0ygpLw3cr9mGeJXH4rAR-28" value="driver.find_element.click()" style="rounded=0;whiteSpace=wrap;html=1;" parent="1" vertex="1">
          <mxGeometry x="-90.06" y="490" width="150" height="30" as="geometry" />
        </mxCell>
        <mxCell id="0ygpLw3cr9mGeJXH4rAR-36" value="" style="edgeStyle=orthogonalEdgeStyle;rounded=0;orthogonalLoop=1;jettySize=auto;html=1;" parent="1" source="0ygpLw3cr9mGeJXH4rAR-33" target="0ygpLw3cr9mGeJXH4rAR-35" edge="1">
          <mxGeometry relative="1" as="geometry" />
        </mxCell>
        <mxCell id="0ygpLw3cr9mGeJXH4rAR-33" value="driver.find_element :&amp;nbsp;&lt;br&gt;title, content, score" style="rounded=0;whiteSpace=wrap;html=1;" parent="1" vertex="1">
          <mxGeometry x="-90.06" y="540" width="150" height="40" as="geometry" />
        </mxCell>
        <mxCell id="In0rpE6QOBtN2LfNiKg4-1" style="edgeStyle=orthogonalEdgeStyle;rounded=0;orthogonalLoop=1;jettySize=auto;html=1;exitX=0.5;exitY=1;exitDx=0;exitDy=0;entryX=0;entryY=0.5;entryDx=0;entryDy=0;" parent="1" source="0ygpLw3cr9mGeJXH4rAR-35" target="0ygpLw3cr9mGeJXH4rAR-7" edge="1">
          <mxGeometry relative="1" as="geometry">
            <Array as="points">
              <mxPoint x="-15" y="680" />
              <mxPoint x="-130" y="680" />
              <mxPoint x="-130" y="250" />
            </Array>
          </mxGeometry>
        </mxCell>
        <mxCell id="0ygpLw3cr9mGeJXH4rAR-35" value="list.append([title, content, score, date])&lt;br&gt;ind += 1" style="rounded=0;whiteSpace=wrap;html=1;" parent="1" vertex="1">
          <mxGeometry x="-90.06" y="600" width="150" height="60" as="geometry" />
        </mxCell>
        <mxCell id="0ygpLw3cr9mGeJXH4rAR-58" value="break" style="ellipse;whiteSpace=wrap;html=1;" parent="1" vertex="1">
          <mxGeometry x="129.94" y="290" width="90" height="40" as="geometry" />
        </mxCell>
        <mxCell id="0ygpLw3cr9mGeJXH4rAR-62" value="" style="endArrow=classic;html=1;rounded=0;exitX=1;exitY=0.5;exitDx=0;exitDy=0;entryX=1;entryY=0.5;entryDx=0;entryDy=0;" parent="1" source="0ygpLw3cr9mGeJXH4rAR-26" target="0ygpLw3cr9mGeJXH4rAR-33" edge="1">
          <mxGeometry width="50" height="50" relative="1" as="geometry">
            <mxPoint x="79.94" y="530" as="sourcePoint" />
            <mxPoint x="129.94" y="480" as="targetPoint" />
            <Array as="points">
              <mxPoint x="139.94" y="450" />
              <mxPoint x="139.94" y="560" />
            </Array>
          </mxGeometry>
        </mxCell>
        <mxCell id="0ygpLw3cr9mGeJXH4rAR-63" value="False" style="edgeLabel;html=1;align=center;verticalAlign=middle;resizable=0;points=[];" parent="0ygpLw3cr9mGeJXH4rAR-62" vertex="1" connectable="0">
          <mxGeometry x="0.0255" y="1" relative="1" as="geometry">
            <mxPoint as="offset" />
          </mxGeometry>
        </mxCell>
        <mxCell id="pz-zH1YR06cYWHIOPMxu-38" value="" style="edgeStyle=orthogonalEdgeStyle;rounded=0;orthogonalLoop=1;jettySize=auto;html=1;" parent="1" source="pz-zH1YR06cYWHIOPMxu-5" target="0ygpLw3cr9mGeJXH4rAR-7" edge="1">
          <mxGeometry relative="1" as="geometry" />
        </mxCell>
        <mxCell id="pz-zH1YR06cYWHIOPMxu-5" value="&lt;div&gt;ind = 1&lt;/div&gt;&lt;div&gt;no = 1&lt;/div&gt;&lt;div&gt;page = 1&lt;/div&gt;" style="rounded=0;whiteSpace=wrap;html=1;" parent="1" vertex="1">
          <mxGeometry x="-90.06" y="160" width="150" height="50" as="geometry" />
        </mxCell>
        <mxCell id="0ygpLw3cr9mGeJXH4rAR-6" value="&lt;font style=&quot;font-size: 8px;&quot;&gt;date_year == &#39;2021&#39;&lt;br&gt;&lt;/font&gt;" style="rhombus;whiteSpace=wrap;html=1;" parent="1" vertex="1">
          <mxGeometry x="-90.06" y="290" width="150" height="40" as="geometry" />
        </mxCell>
        <mxCell id="0ygpLw3cr9mGeJXH4rAR-7" value="&lt;div style=&quot;border-color: var(--border-color);&quot;&gt;driver.find_element :&lt;/div&gt;&lt;div style=&quot;border-color: var(--border-color);&quot;&gt;date&lt;/div&gt;" style="rounded=0;whiteSpace=wrap;html=1;" parent="1" vertex="1">
          <mxGeometry x="-90.06" y="230" width="150" height="40" as="geometry" />
        </mxCell>
      </root>
    </mxGraphModel>
  </diagram>
</mxfile>
